<?xml version="1.0" encoding="UTF-8"?>
<svg width="243px" height="42px" viewBox="0 0 243 42" version="1.1" xmlns="http://www.w3.org/2000/svg" xmlns:xlink="http://www.w3.org/1999/xlink">
    <!-- Generator: Sketch 52.5 (67469) - http://www.bohemiancoding.com/sketch -->
    <title>hyper-link 🔗</title>
    <desc>Created with Sketch.</desc>
    <g id="Page-1" stroke="none" stroke-width="1" fill="none" fill-rule="evenodd">
        <g id="Artboard">
            <g id="hyper-link-🔗">
                <g id="right-arrows" transform="translate(235.716049, 22.756098) scale(-1, 1) translate(-235.716049, -22.756098) translate(228.000000, 12.000000)">
                    <path d="M1.69312169,10.9404878 C1.18518265,10.5970715 0.931216931,10.1248811 0.931216931,9.52390244 C0.931216931,8.92292382 1.18518265,8.43642462 1.69312169,8.06439024 L12.994709,0.552195122 C13.1358032,0.437723005 13.3192229,0.380487805 13.5449735,0.380487805 C13.9400372,0.380487805 14.3139312,0.552193405 14.6666667,0.895609756 C15.0194021,1.23902611 15.1957672,1.63967251 15.1957672,2.09756098 C15.1957672,2.58406747 15.0123475,2.92747867 14.6455026,3.12780488 L5.12169312,9.52390244 L14.6455026,15.8770732 C15.0123475,16.1346354 15.1957672,16.4923554 15.1957672,16.9502439 C15.1957672,17.4081324 15.0194021,17.8016244 14.6666667,18.1307317 C14.3139312,18.459839 13.9400372,18.6243902 13.5449735,18.6243902 C13.3192229,18.6243902 13.1358032,18.567155 12.994709,18.4526829 L1.69312169,10.9404878 Z" id="&lt;-copy-2" fill="#2C3E50"></path>
                    <path d="M1.69312169,13.6234146 C1.18518265,13.2799983 0.931216931,12.8078079 0.931216931,12.2068293 C0.931216931,11.6058507 1.18518265,11.1193515 1.69312169,10.7473171 L12.994709,3.23512195 C13.1358032,3.12064983 13.3192229,3.06341463 13.5449735,3.06341463 C13.9400372,3.06341463 14.3139312,3.23512023 14.6666667,3.57853659 C15.0194021,3.92195294 15.1957672,4.32259934 15.1957672,4.7804878 C15.1957672,5.2669943 15.0123475,5.6104055 14.6455026,5.81073171 L5.12169312,12.2068293 L14.6455026,18.56 C15.0123475,18.8175623 15.1957672,19.1752823 15.1957672,19.6331707 C15.1957672,20.0910592 15.0194021,20.4845512 14.6666667,20.8136585 C14.3139312,21.1427659 13.9400372,21.3073171 13.5449735,21.3073171 C13.3192229,21.3073171 13.1358032,21.2500819 12.994709,21.1356098 L1.69312169,13.6234146 Z" id="&lt;-copy" fill="#42B883"></path>
                </g>
                <g id="slahes" transform="translate(202.876543, 2.048780)">
                    <path d="M0.824541713,33.395122 C0.824541713,33.1394329 0.867938212,32.9547713 0.95473251,32.8411317 L17.2285821,1.22107317 C17.4311021,0.794924699 17.7782741,0.581853659 18.2701085,0.581853659 C18.6462171,0.581853659 18.9933891,0.716798651 19.3116349,0.986692683 C19.6298806,1.25658672 19.7890011,1.59039801 19.7890011,1.98813659 C19.7890011,2.18700587 19.7311391,2.38587218 19.6154134,2.58474146 L3.42835765,33.9917268 C3.22583762,34.4462852 2.82080364,34.673561 2.21324355,34.673561 C1.80820349,34.673561 1.475497,34.5457184 1.2151141,34.2900293 C0.954731208,34.0343402 0.824541713,33.7360407 0.824541713,33.395122 Z" id="/" fill="#2C3E50"></path>
                    <path d="M3.53684998,33.395122 C3.53684998,33.1394329 3.58024648,32.9547713 3.66704078,32.8411317 L19.9408904,1.22107317 C20.1434104,0.794924699 20.4905824,0.581853659 20.9824168,0.581853659 C21.3585254,0.581853659 21.7056974,0.716798651 22.0239431,0.986692683 C22.3421889,1.25658672 22.5013094,1.59039801 22.5013094,1.98813659 C22.5013094,2.18700587 22.4434474,2.38587218 22.3277217,2.58474146 L6.14066592,33.9917268 C5.93814589,34.4462852 5.5331119,34.673561 4.92555181,34.673561 C4.52051175,34.673561 4.18780527,34.5457184 3.92742237,34.2900293 C3.66703948,34.0343402 3.53684998,33.7360407 3.53684998,33.395122 Z" id="/" fill="#42B883"></path>
                </g>
                <path d="M23.6625514,31.0010111 L23.6625514,1.23154702 C23.6625514,0.863496643 23.8272866,0.566229646 24.1567617,0.339737108 C24.4862369,0.11324457 24.9088183,0 25.4245186,0 C25.9402189,0 26.3699627,0.11324457 26.7137629,0.339737108 C27.0575631,0.566229646 27.2294606,0.863496643 27.2294606,1.23154702 L27.2294606,15.1183013 C27.7165109,14.2123312 28.439913,13.4479303 29.3996885,12.8250758 C30.3594641,12.2022214 31.4982851,11.8907988 32.8161859,11.8907988 C34.850337,11.8907988 36.619449,12.6905886 38.1235748,14.2901921 C39.6277007,15.8897957 40.3797523,17.8078756 40.3797523,20.0444894 L40.3797523,31.0010111 C40.3797523,31.3973731 40.2006924,31.7087956 39.8425672,31.9352882 C39.484442,32.1617807 39.0618606,32.2750253 38.5748103,32.2750253 C38.1164101,32.2750253 37.7081535,32.1617807 37.3500283,31.9352882 C36.9919031,31.7087956 36.8128432,31.3973731 36.8128432,31.0010111 L36.8128432,20.0444894 C36.8128432,18.7704689 36.3258002,17.6238676 35.3516996,16.6046512 C34.3775991,15.5854347 33.2316156,15.0758342 31.9137149,15.0758342 C30.6817642,15.0758342 29.5930799,15.5358902 28.6476293,16.4560162 C27.7021788,17.3761421 27.2294606,18.5722879 27.2294606,20.0444894 L27.2294606,31.0010111 C27.2294606,31.3124384 27.0504007,31.6026276 26.6922755,31.8715875 C26.3341503,32.1405474 25.9115689,32.2750253 25.4245186,32.2750253 C24.9374684,32.2750253 24.5220493,32.1476251 24.1782492,31.892821 C23.834449,31.6380169 23.6625514,31.3407499 23.6625514,31.0010111 Z M43.2590646,13.5894843 C43.2590646,13.1364993 43.5169109,12.7401433 44.0326111,12.4004044 C44.5483114,12.0606656 45.064004,11.8907988 45.5797043,11.8907988 C46.1813546,11.8907988 46.5681241,12.1314435 46.7400241,12.6127401 L52.412699,27.3913043 L57.5267013,12.6127401 C57.7272515,12.1314435 58.0996961,11.8907988 58.6440464,11.8907988 C59.1310967,11.8907988 59.6396268,12.0606656 60.1696521,12.4004044 C60.6996774,12.7401433 60.9646861,13.1506548 60.9646861,13.6319515 C60.9646861,13.7735093 60.9217117,13.915065 60.8357617,14.0566229 L54.3035906,31.3407482 L53.4870692,33.4641052 C53.3438192,33.8604671 53.0573233,34.5399345 52.6275731,35.5025278 C52.1978228,36.4651211 51.839703,37.1587441 51.5532028,37.5834176 C51.2667027,38.0080911 50.8656084,38.5672362 50.3499081,39.2608696 C49.8342079,39.954503 49.3328401,40.4570257 48.8457898,40.768453 C48.3587395,41.0798802 47.7785854,41.3629916 47.10531,41.6177958 C46.4320346,41.8725999 45.7229574,42 44.978057,42 C43.8607063,42 43.3020394,41.4762439 43.3020394,40.4287159 C43.3020394,39.4094995 43.6458344,38.8998989 44.3334348,38.8998989 C45.6226855,38.8998989 46.876105,38.1850425 48.0937306,36.7553084 C49.3113563,35.3255742 50.135032,33.4924278 50.5647822,31.255814 L43.4309638,14.0566229 C43.3163638,13.8867534 43.2590646,13.7310422 43.2590646,13.5894843 Z M64.1018472,40.7259858 L64.1018472,13.3771486 C64.1018472,13.0090983 64.2665823,12.7118313 64.5960575,12.4853387 C64.9255327,12.2588462 65.3337893,12.1456016 65.8208396,12.1456016 C66.3078898,12.1456016 66.7089841,12.2588462 67.0241342,12.4853387 C67.3392844,12.7118313 67.4968571,13.0090983 67.4968571,13.3771486 L67.4968571,15.1183013 C68.0125574,14.2123312 68.7717715,13.4479303 69.774522,12.8250758 C70.7772726,12.2022214 71.9375809,11.8907988 73.2554816,11.8907988 C75.4042328,11.8907988 77.230644,12.6905886 78.7347698,14.2901921 C80.2388957,15.8897957 80.9909473,17.8078756 80.9909473,20.0444894 L80.9909473,24.3761375 C80.9909473,26.5278166 80.2317333,28.4388187 78.7132824,30.1092012 C77.1948316,31.7795837 75.432882,32.6147624 73.4273809,32.6147624 C72.1667801,32.6147624 71.0136343,32.296262 69.9679087,31.6592518 C68.9221831,31.0222415 68.1558067,30.2366073 67.6687564,29.3023256 L67.6687564,40.7259858 C67.6687564,41.0374131 67.4896965,41.3276023 67.1315713,41.5965622 C66.7734461,41.8655221 66.3508647,42 65.8638144,42 C65.3767641,42 64.9613451,41.8725999 64.6175449,41.6177958 C64.2737447,41.3629916 64.1018472,41.0657247 64.1018472,40.7259858 Z M67.6687564,25.5227503 C67.6687564,26.2305394 68.1629617,27.0586404 69.1513873,28.0070779 C70.1398129,28.9555154 71.2643091,29.429727 72.5249099,29.429727 C73.8141606,29.429727 74.9529817,28.9130486 75.9414072,27.8796764 C76.9298328,26.8463042 77.4240381,25.6784696 77.4240381,24.3761375 L77.4240381,20.0444894 C77.4240381,18.7704689 76.9298328,17.6238676 75.9414072,16.6046512 C74.9529817,15.5854347 73.785511,15.0758342 72.4389602,15.0758342 C71.1783595,15.0758342 70.068188,15.5358902 69.1084125,16.4560162 C68.148637,17.3761421 67.6687564,18.5722879 67.6687564,20.0444894 L67.6687564,25.5227503 Z M84.5148817,24.3761375 L84.5148817,19.917088 C84.5148817,17.7370973 85.3528821,15.8544063 87.0289081,14.2689585 C88.704934,12.6835108 90.7175675,11.8907988 93.0668688,11.8907988 C95.3015701,11.8907988 97.2354172,12.6339663 98.8684681,14.1203236 C100.501519,15.6066808 101.318032,17.4681385 101.318032,19.7047523 C101.318032,20.5257877 101.217759,21.1840218 101.017209,21.6794742 C100.816658,22.1749266 100.508675,22.5288159 100.09325,22.7411527 C99.6778249,22.9534894 99.2910555,23.0879674 98.9329303,23.1445905 C98.5748051,23.2012136 98.0949245,23.2295248 97.4932742,23.2295248 L88.0817909,23.2295248 L88.0817909,24.5035389 C88.0817909,26.0606751 88.6476202,27.3063654 89.7792959,28.2406471 C90.9109715,29.1749288 92.3792628,29.6420627 94.1842139,29.6420627 C95.1296644,29.6420627 95.95334,29.500507 96.6552654,29.2173913 C97.3571908,28.9342756 97.9230201,28.658242 98.3527704,28.3892821 C98.7825206,28.1203222 99.1263157,27.9858443 99.3841658,27.9858443 C99.785266,27.9858443 100.129061,28.1627889 100.415561,28.5166835 C100.702061,28.8705781 100.845309,29.2315452 100.845309,29.5995956 C100.845309,30.2507616 100.193531,30.9160734 98.8899555,31.5955511 C97.5863798,32.2750287 95.9748405,32.6147624 94.0552894,32.6147624 C91.2475878,32.6147624 88.9556209,31.8574393 87.1793199,30.3427705 C85.4030189,28.8281016 84.5148817,26.8392439 84.5148817,24.3761375 Z M88.0817909,20.851365 L96.0321307,20.851365 C96.7770311,20.851365 97.2783988,20.7593538 97.536249,20.5753286 C97.7940991,20.3913034 97.9230223,20.0303364 97.9230223,19.4924166 C97.9230223,18.2183961 97.4503041,17.1001059 96.5048536,16.1375126 C95.559403,15.1749194 94.3990948,14.6936299 93.023894,14.6936299 C91.6773432,14.6936299 90.517035,15.1395304 89.5429344,16.0313448 C88.5688339,16.9231592 88.0817909,18.0202159 88.0817909,19.322548 L88.0817909,20.851365 Z M105.271715,31.0010111 L105.271715,13.3771486 C105.271715,13.0090983 105.43645,12.7118313 105.765925,12.4853387 C106.0954,12.2588462 106.517982,12.1456016 107.033682,12.1456016 C107.492082,12.1456016 107.878852,12.2588462 108.194002,12.4853387 C108.509152,12.7118313 108.666725,13.0090983 108.666725,13.3771486 L108.666725,15.3731041 C109.182425,14.4105109 109.941639,13.5894877 110.94439,12.9100101 C111.94714,12.2305325 113.064474,11.8907988 114.296425,11.8907988 L115.757568,11.8907988 C116.130018,11.8907988 116.452326,12.0535879 116.724501,12.3791709 C116.996677,12.7047539 117.132762,13.0798765 117.132762,13.5045501 C117.132762,13.9292236 116.996677,14.2972684 116.724501,14.6086957 C116.452326,14.9201229 116.130018,15.0758342 115.757568,15.0758342 L114.296425,15.0758342 C112.835274,15.0758342 111.560367,15.6562126 110.471667,16.8169869 C109.382966,17.9777611 108.838624,19.4782517 108.838624,21.3185035 L108.838624,31.0010111 C108.838624,31.3124384 108.659564,31.6026276 108.301439,31.8715875 C107.943314,32.1405474 107.520732,32.2750253 107.033682,32.2750253 C106.546632,32.2750253 106.131213,32.1476251 105.787412,31.892821 C105.443612,31.6380169 105.271715,31.3407499 105.271715,31.0010111 Z M119.539351,22.082912 C119.539351,21.6582385 119.65395,21.2972715 119.88315,21 C120.11235,20.7027285 120.413171,20.554095 120.785621,20.554095 L131.959071,20.554095 C132.302872,20.554095 132.603692,20.7027285 132.861542,21 C133.119393,21.2972715 133.248316,21.6582385 133.248316,22.082912 C133.248316,22.5075855 133.119393,22.8614748 132.861542,23.1445905 C132.603692,23.4277062 132.302872,23.5692619 131.959071,23.5692619 L120.785621,23.5692619 C119.95477,23.5692619 119.539351,23.0738169 119.539351,22.082912 Z M138.190419,31.0010111 L138.190419,1.23154702 C138.190419,0.863496643 138.355154,0.566229646 138.684629,0.339737108 C139.014104,0.11324457 139.436686,0 139.952386,0 C140.468086,0 140.89783,0.11324457 141.24163,0.339737108 C141.58543,0.566229646 141.757328,0.863496643 141.757328,1.23154702 L141.757328,31.0010111 C141.757328,31.3124384 141.578268,31.6026276 141.220143,31.8715875 C140.862018,32.1405474 140.439436,32.2750253 139.952386,32.2750253 C139.465336,32.2750253 139.049917,32.1476251 138.706117,31.892821 C138.362316,31.6380169 138.190419,31.3407499 138.190419,31.0010111 Z M147.387028,6.03033367 C146.957278,5.60566016 146.742406,5.12437074 146.742406,4.58645096 C146.742406,4.04853118 146.957278,3.58139733 147.387028,3.18503539 C147.816778,2.78867345 148.346796,2.59049545 148.977096,2.59049545 C149.578746,2.59049545 150.094439,2.78867345 150.524189,3.18503539 C150.953939,3.58139733 151.168811,4.04853118 151.168811,4.58645096 C151.168811,5.12437074 150.953939,5.59858238 150.524189,6.0091001 C150.094439,6.41961783 149.578746,6.62487361 148.977096,6.62487361 C148.375446,6.62487361 147.845428,6.42669561 147.387028,6.03033367 Z M147.215129,31.0010111 L147.215129,13.3771486 C147.215129,13.0090983 147.387026,12.7118313 147.730827,12.4853387 C148.074627,12.2588462 148.490046,12.1456016 148.977096,12.1456016 C149.492796,12.1456016 149.92254,12.2588462 150.26634,12.4853387 C150.61014,12.7118313 150.782038,13.0090983 150.782038,13.3771486 L150.782038,31.0010111 C150.782038,31.3124384 150.602978,31.6026276 150.244853,31.8715875 C149.886728,32.1405474 149.464146,32.2750253 148.977096,32.2750253 C148.490046,32.2750253 148.074627,32.1476251 147.730827,31.892821 C147.387026,31.6380169 147.215129,31.3407499 147.215129,31.0010111 Z M155.853066,31.0010111 L155.853066,13.3771486 C155.853066,13.0090983 156.017801,12.7118313 156.347276,12.4853387 C156.676751,12.2588462 157.099332,12.1456016 157.615033,12.1456016 C158.044783,12.1456016 158.42439,12.265924 158.753865,12.5065723 C159.08334,12.7472206 159.248075,13.0374098 159.248075,13.3771486 L159.248075,15.1183013 C159.706476,14.2123312 160.444203,13.4479303 161.461278,12.8250758 C162.478354,12.2022214 163.660149,11.8907988 165.0067,11.8907988 C167.040851,11.8907988 168.809963,12.6905886 170.314089,14.2901921 C171.818215,15.8897957 172.570266,17.8078756 172.570266,20.0444894 L172.570266,31.0010111 C172.570266,31.3973731 172.391206,31.7087956 172.033081,31.9352882 C171.674956,32.1617807 171.252375,32.2750253 170.765324,32.2750253 C170.306924,32.2750253 169.898668,32.1617807 169.540542,31.9352882 C169.182417,31.7087956 169.003357,31.3973731 169.003357,31.0010111 L169.003357,20.0444894 C169.003357,18.7704689 168.516314,17.6238676 167.542214,16.6046512 C166.568113,15.5854347 165.42213,15.0758342 164.104229,15.0758342 C162.872278,15.0758342 161.783594,15.5358902 160.838143,16.4560162 C159.892693,17.3761421 159.419975,18.5722879 159.419975,20.0444894 L159.419975,31.0010111 C159.419975,31.3124384 159.233752,31.6026276 158.861302,31.8715875 C158.488852,32.1405474 158.073433,32.2750253 157.615033,32.2750253 C157.127982,32.2750253 156.712563,32.1476251 156.368763,31.892821 C156.024963,31.6380169 155.853066,31.3407499 155.853066,31.0010111 Z M177.512369,31.0010111 L177.512369,1.23154702 C177.512369,0.863496643 177.677105,0.566229646 178.00658,0.339737108 C178.336055,0.11324457 178.758636,0 179.274337,0 C179.790037,0 180.219781,0.11324457 180.563581,0.339737108 C180.907381,0.566229646 181.079279,0.863496643 181.079279,1.23154702 L181.079279,21.1061678 L190.877535,12.3579373 C191.135385,12.1597563 191.393232,12.0606673 191.651082,12.0606673 C192.080832,12.0606673 192.489089,12.2305342 192.875864,12.570273 C193.262639,12.9100118 193.456024,13.2922122 193.456024,13.7168857 C193.456024,14.0566246 193.327101,14.339736 193.069251,14.5662285 L187.095752,19.7896866 L194.22957,30.0242669 C194.37282,30.2507595 194.444444,30.463093 194.444444,30.661274 C194.444444,31.0859475 194.229573,31.4893813 193.799822,31.8715875 C193.370072,32.2537936 192.926003,32.4448938 192.467603,32.4448938 C192.066503,32.4448938 191.737033,32.2608714 191.479183,31.892821 L184.646188,21.9979778 L181.079279,25.140546 L181.079279,31.0010111 C181.079279,31.3124384 180.900219,31.6026276 180.542094,31.8715875 C180.183968,32.1405474 179.761387,32.2750253 179.274337,32.2750253 C178.787286,32.2750253 178.371867,32.1476251 178.028067,31.892821 C177.684267,31.6380169 177.512369,31.3407499 177.512369,31.0010111 Z" id="hyper-link" fill="#2C3E50"></path>
                <g id="left-arrows" transform="translate(0.000000, 11.000000)">
                    <path d="M1.69312169,10.9404878 C1.18518265,10.5970715 0.931216931,10.1248811 0.931216931,9.52390244 C0.931216931,8.92292382 1.18518265,8.43642462 1.69312169,8.06439024 L12.994709,0.552195122 C13.1358032,0.437723005 13.3192229,0.380487805 13.5449735,0.380487805 C13.9400372,0.380487805 14.3139312,0.552193405 14.6666667,0.895609756 C15.0194021,1.23902611 15.1957672,1.63967251 15.1957672,2.09756098 C15.1957672,2.58406747 15.0123475,2.92747867 14.6455026,3.12780488 L5.12169312,9.52390244 L14.6455026,15.8770732 C15.0123475,16.1346354 15.1957672,16.4923554 15.1957672,16.9502439 C15.1957672,17.4081324 15.0194021,17.8016244 14.6666667,18.1307317 C14.3139312,18.459839 13.9400372,18.6243902 13.5449735,18.6243902 C13.3192229,18.6243902 13.1358032,18.567155 12.994709,18.4526829 L1.69312169,10.9404878 Z" id="&lt;-copy-2" fill="#2C3E50"></path>
                    <path d="M1.69312169,13.6234146 C1.18518265,13.2799983 0.931216931,12.8078079 0.931216931,12.2068293 C0.931216931,11.6058507 1.18518265,11.1193515 1.69312169,10.7473171 L12.994709,3.23512195 C13.1358032,3.12064983 13.3192229,3.06341463 13.5449735,3.06341463 C13.9400372,3.06341463 14.3139312,3.23512023 14.6666667,3.57853659 C15.0194021,3.92195294 15.1957672,4.32259934 15.1957672,4.7804878 C15.1957672,5.2669943 15.0123475,5.6104055 14.6455026,5.81073171 L5.12169312,12.2068293 L14.6455026,18.56 C15.0123475,18.8175623 15.1957672,19.1752823 15.1957672,19.6331707 C15.1957672,20.0910592 15.0194021,20.4845512 14.6666667,20.8136585 C14.3139312,21.1427659 13.9400372,21.3073171 13.5449735,21.3073171 C13.3192229,21.3073171 13.1358032,21.2500819 12.994709,21.1356098 L1.69312169,13.6234146 Z" id="&lt;-copy" fill="#42B883"></path>
                </g>
            </g>
        </g>
    </g>
</svg>